# xmcd
#
# Track frame offsets:
#	150
#	14327
#	30904
#	44878
#	57705
#	75483
#	92961
#	109013
#	132116
#	147494
#	162608
#	178660
#	195727
#	212680
#	229034
#	244261
#	259114
#	273593
#
# Disc length: 3874 seconds
#
# Revision: 2
# Processed by: cddbd v1.5.2PL0 Copyright (c) Steve Scherf et al.
# Submitted via: audiograbber 1.83.01
#
DISCID=0b0f2012
DTITLE=Various Artist - Promo Only Country Radio 2011 - 04
DYEAR=2011
DGENRE=Country
TTITLE0=Bridgette Tatum - Hillbilly Rockstar
TTITLE1=Chris Young - Tomorrow
TTITLE2=Toky Keith - Somewhere Else
TTITLE3=Colt Ford - Country Thang
TTITLE4=Keith Urban - Without You
TTITLE5=Jody Booth - Gold Digger
TTITLE6=Gretchen Wilson - I'd Love to Be Your Last
TTITLE7=The Doobie Brothers - World Gone Crazy
TTITLE8=Sarah Darling - Something to Do with Your Hand
TTITLE9=Eli Young Band - Crazy Girl
TTITLE10=Ronnie Dunn - Bleed Red
TTITLE11=Eric Church - Homeboy
TTITLE12=Justin Moore - If Heaven Wasn't So Far Away
TTITLE13=Tonja Rose - Where Would Your Heart Be
TTITLE14=Levi Hart - Borderline Crazy
TTITLE15=River Road - Something I Can Wrap My Arms Around
TTITLE16=D.J. Miller - Whatever it Takes
TTITLE17=Brice Beaird - Old Rock Church
EXTD=
EXTT0=
EXTT1=
EXTT2=
EXTT3=
EXTT4=
EXTT5=
EXTT6=
EXTT7=
EXTT8=
EXTT9=
EXTT10=
EXTT11=
EXTT12=
EXTT13=
EXTT14=
EXTT15=
EXTT16=
EXTT17=
PLAYORDER=
